<svg width="40" height="40" viewBox="0 0 40 40" fill="none" xmlns="http://www.w3.org/2000/svg">
<g id="mdi:clock-fast">
<path id="Vector" d="M26.3333 7C29.8696 7 33.2609 8.40476 35.7614 10.9052C38.2619 13.4057 39.6667 16.7971 39.6667 20.3333C39.6667 23.8696 38.2619 27.2609 35.7614 29.7614C33.2609 32.2619 29.8696 33.6667 26.3333 33.6667C22.7971 33.6667 19.4057 32.2619 16.9052 29.7614C14.4048 27.2609 13 23.8696 13 20.3333C13 16.7971 14.4048 13.4057 16.9052 10.9052C19.4057 8.40476 22.7971 7 26.3333 7ZM26.3333 10.3333C23.6812 10.3333 21.1376 11.3869 19.2623 13.2623C17.3869 15.1376 16.3333 17.6812 16.3333 20.3333C16.3333 22.9855 17.3869 25.529 19.2623 27.4044C21.1376 29.2798 23.6812 30.3333 26.3333 30.3333C28.9855 30.3333 31.529 29.2798 33.4044 27.4044C35.2798 25.529 36.3333 22.9855 36.3333 20.3333C36.3333 17.6812 35.2798 15.1376 33.4044 13.2623C31.529 11.3869 28.9855 10.3333 26.3333 10.3333ZM24.6667 13.6667H27.1667V19.9667L31.05 23.85L29.2833 25.6167L24.6667 21V13.6667ZM4.66667 30.3333C4.22464 30.3333 3.80072 30.1577 3.48816 29.8452C3.17559 29.5326 3 29.1087 3 28.6667C3 28.2246 3.17559 27.8007 3.48816 27.4882C3.80072 27.1756 4.22464 27 4.66667 27H11.05C11.5667 28.1833 12.2333 29.3 13 30.3333H4.66667ZM6.33333 22C5.89131 22 5.46738 21.8244 5.15482 21.5118C4.84226 21.1993 4.66667 20.7754 4.66667 20.3333C4.66667 19.8913 4.84226 19.4674 5.15482 19.1548C5.46738 18.8423 5.89131 18.6667 6.33333 18.6667H9.75L9.66667 20.3333L9.75 22H6.33333ZM8 13.6667C7.55797 13.6667 7.13405 13.4911 6.82149 13.1785C6.50893 12.866 6.33333 12.442 6.33333 12C6.33333 11.558 6.50893 11.1341 6.82149 10.8215C7.13405 10.5089 7.55797 10.3333 8 10.3333H13C12.2333 11.3667 11.5667 12.4833 11.05 13.6667H8Z" fill="white"/>
</g>
</svg>
